# xmcd CD database file
#
# Track frame offsets:
#	150
#	14892
#	27945
#	39952
#	52850
#	65102
#	77290
#	92692
#	106947
#	119082
#	134492
#	148337
#	161325
#	173312
#
# Disc length: 2520 seconds
#
# Revision: 0
# Processed by: cddbd v1.5.1PL0 Copyright (c) Steve Scherf et al.
# Submitted via: CDex 1.51
#
DISCID=b609d60e
DTITLE=Suzanne Klee - My Way Or The Highway
DYEAR=1900
DGENRE=Country
TTITLE0=My Way Or The Highway
TTITLE1=Draggin' My Chains
TTITLE2=Sad Songs And Waltzes
TTITLE3=Last Thing On My Mind
TTITLE4=Say When
TTITLE5=What A Lie
TTITLE6=Flower On The Wall
TTITLE7=If You Can't Stand The Heat
TTITLE8=Livin' Of Love
TTITLE9=Someday When Things Are Good
TTITLE10=I Want To See The Bright Lights Tonight
TTITLE11=Fadin' Away
TTITLE12=Paper Roses
TTITLE13=Wrong Side Of The Border
EXTD=
EXTT0=
EXTT1=
EXTT2=
EXTT3=
EXTT4=
EXTT5=
EXTT6=
EXTT7=
EXTT8=
EXTT9=
EXTT10=
EXTT11=
EXTT12=
EXTT13=
PLAYORDER=
